%TF.GenerationSoftware,KiCad,Pcbnew,(6.0.6)*%
%TF.CreationDate,2022-08-04T21:15:32+02:00*%
%TF.ProjectId,Linearsensor,4c696e65-6172-4736-956e-736f722e6b69,rev?*%
%TF.SameCoordinates,Original*%
%TF.FileFunction,Soldermask,Top*%
%TF.FilePolarity,Negative*%
%FSLAX46Y46*%
G04 Gerber Fmt 4.6, Leading zero omitted, Abs format (unit mm)*
G04 Created by KiCad (PCBNEW (6.0.6)) date 2022-08-04 21:15:32*
%MOMM*%
%LPD*%
G01*
G04 APERTURE LIST*
G04 Aperture macros list*
%AMRoundRect*
0 Rectangle with rounded corners*
0 $1 Rounding radius*
0 $2 $3 $4 $5 $6 $7 $8 $9 X,Y pos of 4 corners*
0 Add a 4 corners polygon primitive as box body*
4,1,4,$2,$3,$4,$5,$6,$7,$8,$9,$2,$3,0*
0 Add four circle primitives for the rounded corners*
1,1,$1+$1,$2,$3*
1,1,$1+$1,$4,$5*
1,1,$1+$1,$6,$7*
1,1,$1+$1,$8,$9*
0 Add four rect primitives between the rounded corners*
20,1,$1+$1,$2,$3,$4,$5,0*
20,1,$1+$1,$4,$5,$6,$7,0*
20,1,$1+$1,$6,$7,$8,$9,0*
20,1,$1+$1,$8,$9,$2,$3,0*%
G04 Aperture macros list end*
%ADD10RoundRect,0.200000X-0.275000X0.200000X-0.275000X-0.200000X0.275000X-0.200000X0.275000X0.200000X0*%
%ADD11RoundRect,0.218750X0.256250X-0.218750X0.256250X0.218750X-0.256250X0.218750X-0.256250X-0.218750X0*%
%ADD12RoundRect,0.150000X-0.587500X-0.150000X0.587500X-0.150000X0.587500X0.150000X-0.587500X0.150000X0*%
%ADD13RoundRect,0.140000X-0.140000X-0.170000X0.140000X-0.170000X0.140000X0.170000X-0.140000X0.170000X0*%
%ADD14C,2.100000*%
%ADD15R,1.700000X1.700000*%
%ADD16O,1.700000X1.700000*%
%ADD17C,0.800000*%
G04 APERTURE END LIST*
D10*
%TO.C,R2*%
X163830000Y-102045000D03*
X163830000Y-103695000D03*
%TD*%
D11*
%TO.C,D1*%
X184150000Y-101117500D03*
X184150000Y-99542500D03*
%TD*%
D10*
%TO.C,R4*%
X138430000Y-102045000D03*
X138430000Y-103695000D03*
%TD*%
%TO.C,R5*%
X175260000Y-98235000D03*
X175260000Y-99885000D03*
%TD*%
D12*
%TO.C,U3*%
X154002500Y-101920000D03*
X154002500Y-103820000D03*
X155877500Y-102870000D03*
%TD*%
D13*
%TO.C,C3*%
X154460000Y-99060000D03*
X155420000Y-99060000D03*
%TD*%
D10*
%TO.C,R1*%
X176530000Y-102045000D03*
X176530000Y-103695000D03*
%TD*%
D14*
%TO.C,H2*%
X137160000Y-106680000D03*
%TD*%
%TO.C,H1*%
X137160000Y-97790000D03*
%TD*%
D12*
%TO.C,U4*%
X141302500Y-101920000D03*
X141302500Y-103820000D03*
X143177500Y-102870000D03*
%TD*%
D15*
%TO.C,J2*%
X187390000Y-100345000D03*
D16*
X189930000Y-100345000D03*
X187390000Y-102885000D03*
X189930000Y-102885000D03*
X187390000Y-105425000D03*
X189930000Y-105425000D03*
%TD*%
D10*
%TO.C,R3*%
X151130000Y-102045000D03*
X151130000Y-103695000D03*
%TD*%
D11*
%TO.C,D2*%
X171450000Y-99847500D03*
X171450000Y-98272500D03*
%TD*%
D13*
%TO.C,C1*%
X179860000Y-99060000D03*
X180820000Y-99060000D03*
%TD*%
D12*
%TO.C,U2*%
X166702500Y-101920000D03*
X166702500Y-103820000D03*
X168577500Y-102870000D03*
%TD*%
%TO.C,U1*%
X179402500Y-101920000D03*
X179402500Y-103820000D03*
X181277500Y-102870000D03*
%TD*%
D13*
%TO.C,C2*%
X167160000Y-99060000D03*
X168120000Y-99060000D03*
%TD*%
%TO.C,C4*%
X141760000Y-99060000D03*
X142720000Y-99060000D03*
%TD*%
D17*
X182880000Y-102870000D03*
X170180000Y-102870000D03*
X144780000Y-102870000D03*
X157480000Y-102870000D03*
M02*
